<mxfile host="app.diagrams.net" modified="2021-10-20T19:37:29.924Z" agent="5.0 (Windows NT 10.0; Win64; x64) AppleWebKit/537.36 (KHTML, like Gecko) Chrome/94.0.4606.61 Safari/537.36" etag="8uuNt7teA5dwlnvgxmbB" version="15.5.5" type="github">
  <diagram id="C5RBs43oDa-KdzZeNtuy" name="Page-1">
    <mxGraphModel dx="647" dy="372" grid="1" gridSize="10" guides="1" tooltips="1" connect="1" arrows="1" fold="1" page="1" pageScale="1" pageWidth="827" pageHeight="1169" background="#F4F1DE" math="0" shadow="0">
      <root>
        <mxCell id="WIyWlLk6GJQsqaUBKTNV-0" />
        <mxCell id="WIyWlLk6GJQsqaUBKTNV-1" parent="WIyWlLk6GJQsqaUBKTNV-0" />
        <mxCell id="Lzft2QzAgV64XNCXjjh6-0" value="" style="ellipse;whiteSpace=wrap;html=1;rounded=0;sketch=0;fontColor=#393C56;strokeColor=#E07A5F;fillColor=#F2CC8F;" vertex="1" parent="WIyWlLk6GJQsqaUBKTNV-1">
          <mxGeometry x="75" y="80" width="90" height="50" as="geometry" />
        </mxCell>
        <mxCell id="Lzft2QzAgV64XNCXjjh6-1" value="START" style="text;html=1;strokeColor=none;fillColor=none;align=center;verticalAlign=middle;whiteSpace=wrap;rounded=0;sketch=0;fontColor=#393C56;" vertex="1" parent="WIyWlLk6GJQsqaUBKTNV-1">
          <mxGeometry x="90" y="90" width="60" height="30" as="geometry" />
        </mxCell>
        <mxCell id="Lzft2QzAgV64XNCXjjh6-2" value="" style="shape=parallelogram;perimeter=parallelogramPerimeter;whiteSpace=wrap;html=1;fixedSize=1;rounded=0;sketch=0;fontColor=#393C56;strokeColor=#E07A5F;fillColor=#F2CC8F;" vertex="1" parent="WIyWlLk6GJQsqaUBKTNV-1">
          <mxGeometry x="60" y="170" width="120" height="60" as="geometry" />
        </mxCell>
        <mxCell id="Lzft2QzAgV64XNCXjjh6-3" value="&amp;nbsp;prompt user for a choice" style="text;html=1;strokeColor=none;fillColor=none;align=center;verticalAlign=middle;whiteSpace=wrap;rounded=0;sketch=0;fontColor=#393C56;fontSize=10;" vertex="1" parent="WIyWlLk6GJQsqaUBKTNV-1">
          <mxGeometry x="75" y="200" width="85" height="20" as="geometry" />
        </mxCell>
        <mxCell id="Lzft2QzAgV64XNCXjjh6-10" value="" style="endArrow=none;html=1;rounded=1;sketch=0;fontColor=#393C56;strokeColor=#E07A5F;fillColor=#F2CC8F;curved=0;exitX=0.5;exitY=1;exitDx=0;exitDy=0;" edge="1" parent="WIyWlLk6GJQsqaUBKTNV-1" source="Lzft2QzAgV64XNCXjjh6-2">
          <mxGeometry width="50" height="50" relative="1" as="geometry">
            <mxPoint x="120" y="270" as="sourcePoint" />
            <mxPoint x="120" y="961" as="targetPoint" />
            <Array as="points">
              <mxPoint x="120" y="350" />
            </Array>
          </mxGeometry>
        </mxCell>
        <mxCell id="Lzft2QzAgV64XNCXjjh6-11" value="" style="endArrow=classic;html=1;rounded=1;sketch=0;fontColor=#393C56;strokeColor=#E07A5F;fillColor=#F2CC8F;curved=0;" edge="1" parent="WIyWlLk6GJQsqaUBKTNV-1">
          <mxGeometry width="50" height="50" relative="1" as="geometry">
            <mxPoint x="120" y="320" as="sourcePoint" />
            <mxPoint x="190" y="320" as="targetPoint" />
            <Array as="points">
              <mxPoint x="150" y="320" />
            </Array>
          </mxGeometry>
        </mxCell>
        <mxCell id="Lzft2QzAgV64XNCXjjh6-12" value="" style="endArrow=classic;html=1;rounded=1;sketch=0;fontColor=#393C56;strokeColor=#E07A5F;fillColor=#F2CC8F;curved=0;" edge="1" parent="WIyWlLk6GJQsqaUBKTNV-1">
          <mxGeometry width="50" height="50" relative="1" as="geometry">
            <mxPoint x="119.58" y="130" as="sourcePoint" />
            <mxPoint x="119.58" y="170" as="targetPoint" />
          </mxGeometry>
        </mxCell>
        <mxCell id="Lzft2QzAgV64XNCXjjh6-14" value="" style="shape=image;html=1;verticalAlign=top;verticalLabelPosition=bottom;labelBackgroundColor=#ffffff;imageAspect=0;aspect=fixed;image=https://cdn2.iconfinder.com/data/icons/integers/60/number-one-128.png;rounded=0;sketch=0;fontColor=#393C56;strokeColor=#E07A5F;fillColor=#F2CC8F;" vertex="1" parent="WIyWlLk6GJQsqaUBKTNV-1">
          <mxGeometry x="150" y="300" width="15" height="15" as="geometry" />
        </mxCell>
        <mxCell id="Lzft2QzAgV64XNCXjjh6-15" value="" style="shape=parallelogram;perimeter=parallelogramPerimeter;whiteSpace=wrap;html=1;fixedSize=1;rounded=0;sketch=0;fontColor=#393C56;strokeColor=#E07A5F;fillColor=#F2CC8F;" vertex="1" parent="WIyWlLk6GJQsqaUBKTNV-1">
          <mxGeometry x="180" y="290" width="120" height="60" as="geometry" />
        </mxCell>
        <mxCell id="Lzft2QzAgV64XNCXjjh6-16" value="prompt for order date &quot;mmddyyyy&quot;" style="text;html=1;strokeColor=none;fillColor=none;align=center;verticalAlign=middle;whiteSpace=wrap;rounded=0;sketch=0;fontColor=#393C56;fontSize=10;" vertex="1" parent="WIyWlLk6GJQsqaUBKTNV-1">
          <mxGeometry x="187.5" y="300" width="105" height="45" as="geometry" />
        </mxCell>
        <mxCell id="Lzft2QzAgV64XNCXjjh6-28" value="" style="edgeStyle=orthogonalEdgeStyle;curved=0;rounded=1;sketch=0;orthogonalLoop=1;jettySize=auto;html=1;fontSize=10;fontColor=#393C56;endArrow=block;endFill=1;strokeColor=#E07A5F;fillColor=#F2CC8F;" edge="1" parent="WIyWlLk6GJQsqaUBKTNV-1" source="Lzft2QzAgV64XNCXjjh6-18">
          <mxGeometry relative="1" as="geometry">
            <mxPoint x="520" y="320" as="targetPoint" />
          </mxGeometry>
        </mxCell>
        <mxCell id="Lzft2QzAgV64XNCXjjh6-18" value="" style="rhombus;whiteSpace=wrap;html=1;rounded=0;sketch=0;fontSize=10;fontColor=#393C56;strokeColor=#E07A5F;fillColor=#F2CC8F;" vertex="1" parent="WIyWlLk6GJQsqaUBKTNV-1">
          <mxGeometry x="350" y="280" width="100" height="80" as="geometry" />
        </mxCell>
        <mxCell id="Lzft2QzAgV64XNCXjjh6-19" value="" style="endArrow=classic;html=1;rounded=1;sketch=0;fontSize=10;fontColor=#393C56;strokeColor=#E07A5F;fillColor=#F2CC8F;curved=0;" edge="1" parent="WIyWlLk6GJQsqaUBKTNV-1">
          <mxGeometry width="50" height="50" relative="1" as="geometry">
            <mxPoint x="290" y="320" as="sourcePoint" />
            <mxPoint x="350" y="320" as="targetPoint" />
          </mxGeometry>
        </mxCell>
        <mxCell id="Lzft2QzAgV64XNCXjjh6-21" value="Are there orders for chosen date?&amp;nbsp;" style="text;html=1;strokeColor=none;fillColor=none;align=center;verticalAlign=middle;whiteSpace=wrap;rounded=0;sketch=0;fontSize=10;fontColor=#393C56;" vertex="1" parent="WIyWlLk6GJQsqaUBKTNV-1">
          <mxGeometry x="360" y="295" width="80" height="45" as="geometry" />
        </mxCell>
        <mxCell id="Lzft2QzAgV64XNCXjjh6-22" value="" style="rounded=0;whiteSpace=wrap;html=1;sketch=0;fontSize=10;fontColor=#393C56;strokeColor=#E07A5F;fillColor=#F2CC8F;" vertex="1" parent="WIyWlLk6GJQsqaUBKTNV-1">
          <mxGeometry x="510" y="290" width="100" height="50" as="geometry" />
        </mxCell>
        <mxCell id="Lzft2QzAgV64XNCXjjh6-23" value="display orders for a chosen date" style="text;html=1;strokeColor=none;fillColor=none;align=center;verticalAlign=middle;whiteSpace=wrap;rounded=0;sketch=0;fontSize=10;fontColor=#393C56;" vertex="1" parent="WIyWlLk6GJQsqaUBKTNV-1">
          <mxGeometry x="510" y="290" width="100" height="50" as="geometry" />
        </mxCell>
        <mxCell id="Lzft2QzAgV64XNCXjjh6-24" value="" style="endArrow=classic;html=1;rounded=1;sketch=0;fontSize=10;fontColor=#393C56;strokeColor=#E07A5F;fillColor=#F2CC8F;curved=0;entryX=-0.002;entryY=0.601;entryDx=0;entryDy=0;entryPerimeter=0;" edge="1" parent="WIyWlLk6GJQsqaUBKTNV-1" target="Lzft2QzAgV64XNCXjjh6-23">
          <mxGeometry width="50" height="50" relative="1" as="geometry">
            <mxPoint x="450" y="320" as="sourcePoint" />
            <mxPoint x="450" y="315" as="targetPoint" />
          </mxGeometry>
        </mxCell>
        <mxCell id="Lzft2QzAgV64XNCXjjh6-25" value="" style="endArrow=classic;html=1;rounded=1;sketch=0;fontSize=10;fontColor=#393C56;strokeColor=#E07A5F;fillColor=#F2CC8F;curved=0;entryX=0.5;entryY=0;entryDx=0;entryDy=0;exitX=0.5;exitY=0;exitDx=0;exitDy=0;" edge="1" parent="WIyWlLk6GJQsqaUBKTNV-1" source="Lzft2QzAgV64XNCXjjh6-18" target="Lzft2QzAgV64XNCXjjh6-15">
          <mxGeometry width="50" height="50" relative="1" as="geometry">
            <mxPoint x="500" y="290" as="sourcePoint" />
            <mxPoint x="370" y="240" as="targetPoint" />
            <Array as="points">
              <mxPoint x="400" y="240" />
              <mxPoint x="240" y="240" />
            </Array>
          </mxGeometry>
        </mxCell>
        <mxCell id="Lzft2QzAgV64XNCXjjh6-29" value="Yes" style="text;html=1;strokeColor=none;fillColor=none;align=center;verticalAlign=middle;whiteSpace=wrap;rounded=0;sketch=0;fontSize=10;fontColor=#393C56;" vertex="1" parent="WIyWlLk6GJQsqaUBKTNV-1">
          <mxGeometry x="450" y="292.5" width="60" height="30" as="geometry" />
        </mxCell>
        <mxCell id="Lzft2QzAgV64XNCXjjh6-30" value="No" style="text;html=1;strokeColor=none;fillColor=none;align=center;verticalAlign=middle;whiteSpace=wrap;rounded=0;sketch=0;fontSize=10;fontColor=#393C56;" vertex="1" parent="WIyWlLk6GJQsqaUBKTNV-1">
          <mxGeometry x="383" y="250" width="60" height="30" as="geometry" />
        </mxCell>
        <mxCell id="Lzft2QzAgV64XNCXjjh6-31" value="" style="endArrow=classic;html=1;rounded=1;sketch=0;fontSize=10;fontColor=#393C56;strokeColor=#E07A5F;fillColor=#F2CC8F;curved=0;exitX=1;exitY=0.5;exitDx=0;exitDy=0;endFill=1;" edge="1" parent="WIyWlLk6GJQsqaUBKTNV-1" source="Lzft2QzAgV64XNCXjjh6-23">
          <mxGeometry width="50" height="50" relative="1" as="geometry">
            <mxPoint x="580" y="330" as="sourcePoint" />
            <mxPoint x="800" y="315" as="targetPoint" />
          </mxGeometry>
        </mxCell>
        <mxCell id="Lzft2QzAgV64XNCXjjh6-32" value="" style="endArrow=classic;html=1;rounded=1;sketch=0;fontSize=10;fontColor=#393C56;strokeColor=#E07A5F;fillColor=#F2CC8F;curved=0;entryX=0;entryY=0.5;entryDx=0;entryDy=0;" edge="1" parent="WIyWlLk6GJQsqaUBKTNV-1" target="Lzft2QzAgV64XNCXjjh6-33">
          <mxGeometry width="50" height="50" relative="1" as="geometry">
            <mxPoint x="120" y="440" as="sourcePoint" />
            <mxPoint x="192.25" y="440" as="targetPoint" />
            <Array as="points" />
          </mxGeometry>
        </mxCell>
        <mxCell id="Lzft2QzAgV64XNCXjjh6-33" value="" style="shape=parallelogram;perimeter=parallelogramPerimeter;whiteSpace=wrap;html=1;fixedSize=1;rounded=0;sketch=0;fontSize=10;fontColor=#393C56;strokeColor=#E07A5F;fillColor=#F2CC8F;" vertex="1" parent="WIyWlLk6GJQsqaUBKTNV-1">
          <mxGeometry x="172.5" y="410" width="120" height="60" as="geometry" />
        </mxCell>
        <mxCell id="Lzft2QzAgV64XNCXjjh6-34" value="prompt for order date&lt;br&gt;&quot;mmddyyyy&quot;" style="text;html=1;strokeColor=none;fillColor=none;align=center;verticalAlign=middle;whiteSpace=wrap;rounded=0;sketch=0;fontSize=10;fontColor=#393C56;" vertex="1" parent="WIyWlLk6GJQsqaUBKTNV-1">
          <mxGeometry x="180" y="412.5" width="100" height="55" as="geometry" />
        </mxCell>
        <mxCell id="Lzft2QzAgV64XNCXjjh6-35" value="" style="shape=image;html=1;verticalAlign=top;verticalLabelPosition=bottom;labelBackgroundColor=#ffffff;imageAspect=0;aspect=fixed;image=https://cdn2.iconfinder.com/data/icons/integers/60/number-two-128.png;rounded=0;sketch=0;fontSize=10;fontColor=#393C56;strokeColor=#E07A5F;fillColor=#F2CC8F;" vertex="1" parent="WIyWlLk6GJQsqaUBKTNV-1">
          <mxGeometry x="145" y="410" width="17.5" height="17.5" as="geometry" />
        </mxCell>
        <mxCell id="Lzft2QzAgV64XNCXjjh6-38" value="" style="rhombus;whiteSpace=wrap;html=1;rounded=0;sketch=0;fontSize=10;fontColor=#393C56;strokeColor=#E07A5F;fillColor=#F2CC8F;" vertex="1" parent="WIyWlLk6GJQsqaUBKTNV-1">
          <mxGeometry x="350" y="397.5" width="100" height="85" as="geometry" />
        </mxCell>
        <mxCell id="Lzft2QzAgV64XNCXjjh6-39" value="Is chosen date &amp;gt; last order date?" style="text;html=1;strokeColor=none;fillColor=none;align=center;verticalAlign=middle;whiteSpace=wrap;rounded=0;sketch=0;fontSize=10;fontColor=#393C56;" vertex="1" parent="WIyWlLk6GJQsqaUBKTNV-1">
          <mxGeometry x="355" y="409" width="90" height="57" as="geometry" />
        </mxCell>
        <mxCell id="Lzft2QzAgV64XNCXjjh6-40" value="" style="endArrow=classic;html=1;rounded=1;sketch=0;fontSize=10;fontColor=#393C56;strokeColor=#E07A5F;fillColor=#F2CC8F;curved=0;entryX=-0.084;entryY=0.528;entryDx=0;entryDy=0;entryPerimeter=0;" edge="1" parent="WIyWlLk6GJQsqaUBKTNV-1" target="Lzft2QzAgV64XNCXjjh6-39">
          <mxGeometry width="50" height="50" relative="1" as="geometry">
            <mxPoint x="280" y="440" as="sourcePoint" />
            <mxPoint x="330" y="390" as="targetPoint" />
          </mxGeometry>
        </mxCell>
        <mxCell id="Lzft2QzAgV64XNCXjjh6-42" value="" style="endArrow=classic;html=1;rounded=1;sketch=0;fontSize=10;fontColor=#393C56;strokeColor=#E07A5F;fillColor=#F2CC8F;curved=0;startArrow=none;" edge="1" parent="WIyWlLk6GJQsqaUBKTNV-1">
          <mxGeometry width="50" height="50" relative="1" as="geometry">
            <mxPoint x="450" y="440" as="sourcePoint" />
            <mxPoint x="510" y="440" as="targetPoint" />
          </mxGeometry>
        </mxCell>
        <mxCell id="Lzft2QzAgV64XNCXjjh6-44" value="" style="endArrow=classic;html=1;rounded=1;sketch=0;fontSize=10;fontColor=#393C56;strokeColor=#E07A5F;fillColor=#F2CC8F;curved=0;exitX=0.5;exitY=0;exitDx=0;exitDy=0;entryX=0.591;entryY=-0.082;entryDx=0;entryDy=0;entryPerimeter=0;" edge="1" parent="WIyWlLk6GJQsqaUBKTNV-1" source="Lzft2QzAgV64XNCXjjh6-38" target="Lzft2QzAgV64XNCXjjh6-34">
          <mxGeometry width="50" height="50" relative="1" as="geometry">
            <mxPoint x="330" y="400" as="sourcePoint" />
            <mxPoint x="240" y="370" as="targetPoint" />
            <Array as="points">
              <mxPoint x="400" y="370" />
              <mxPoint x="239" y="370" />
            </Array>
          </mxGeometry>
        </mxCell>
        <mxCell id="Lzft2QzAgV64XNCXjjh6-45" value="No" style="text;html=1;strokeColor=none;fillColor=none;align=center;verticalAlign=middle;whiteSpace=wrap;rounded=0;sketch=0;fontSize=10;fontColor=#393C56;" vertex="1" parent="WIyWlLk6GJQsqaUBKTNV-1">
          <mxGeometry x="385" y="367.5" width="60" height="30" as="geometry" />
        </mxCell>
        <mxCell id="Lzft2QzAgV64XNCXjjh6-46" value="" style="shape=parallelogram;perimeter=parallelogramPerimeter;whiteSpace=wrap;html=1;fixedSize=1;rounded=0;sketch=0;fontSize=10;fontColor=#393C56;strokeColor=#E07A5F;fillColor=#F2CC8F;" vertex="1" parent="WIyWlLk6GJQsqaUBKTNV-1">
          <mxGeometry x="500" y="409" width="120" height="60" as="geometry" />
        </mxCell>
        <mxCell id="Lzft2QzAgV64XNCXjjh6-47" value="prompt for customer name" style="text;html=1;strokeColor=none;fillColor=none;align=center;verticalAlign=middle;whiteSpace=wrap;rounded=0;sketch=0;fontSize=10;fontColor=#393C56;" vertex="1" parent="WIyWlLk6GJQsqaUBKTNV-1">
          <mxGeometry x="510" y="411" width="100" height="55" as="geometry" />
        </mxCell>
        <mxCell id="Lzft2QzAgV64XNCXjjh6-49" value="" style="rhombus;whiteSpace=wrap;html=1;rounded=0;sketch=0;fontSize=10;fontColor=#393C56;strokeColor=#E07A5F;fillColor=#F2CC8F;" vertex="1" parent="WIyWlLk6GJQsqaUBKTNV-1">
          <mxGeometry x="650" y="398.5" width="100" height="80" as="geometry" />
        </mxCell>
        <mxCell id="Lzft2QzAgV64XNCXjjh6-50" value="name!=&quot; &quot;, char in [a-z][0-9][&quot;,&quot;,&quot;.&quot;]" style="text;html=1;strokeColor=none;fillColor=none;align=center;verticalAlign=middle;whiteSpace=wrap;rounded=0;sketch=0;fontSize=10;fontColor=#393C56;" vertex="1" parent="WIyWlLk6GJQsqaUBKTNV-1">
          <mxGeometry x="655" y="401.75" width="90" height="71.5" as="geometry" />
        </mxCell>
        <mxCell id="Lzft2QzAgV64XNCXjjh6-51" value="" style="endArrow=classic;html=1;rounded=1;sketch=0;fontSize=10;fontColor=#393C56;strokeColor=#E07A5F;fillColor=#F2CC8F;curved=0;exitX=1;exitY=0.5;exitDx=0;exitDy=0;" edge="1" parent="WIyWlLk6GJQsqaUBKTNV-1" source="Lzft2QzAgV64XNCXjjh6-47">
          <mxGeometry width="50" height="50" relative="1" as="geometry">
            <mxPoint x="460" y="530" as="sourcePoint" />
            <mxPoint x="650" y="439" as="targetPoint" />
          </mxGeometry>
        </mxCell>
        <mxCell id="Lzft2QzAgV64XNCXjjh6-52" value="" style="endArrow=classic;html=1;rounded=1;sketch=0;fontSize=10;fontColor=#393C56;strokeColor=#E07A5F;fillColor=#F2CC8F;curved=0;entryX=0.5;entryY=0;entryDx=0;entryDy=0;" edge="1" parent="WIyWlLk6GJQsqaUBKTNV-1" target="Lzft2QzAgV64XNCXjjh6-47">
          <mxGeometry width="50" height="50" relative="1" as="geometry">
            <mxPoint x="700" y="400" as="sourcePoint" />
            <mxPoint x="560" y="360" as="targetPoint" />
            <Array as="points">
              <mxPoint x="700" y="370" />
              <mxPoint x="560" y="370" />
            </Array>
          </mxGeometry>
        </mxCell>
        <mxCell id="Lzft2QzAgV64XNCXjjh6-53" value="No" style="text;html=1;strokeColor=none;fillColor=none;align=center;verticalAlign=middle;whiteSpace=wrap;rounded=0;sketch=0;fontSize=10;fontColor=#393C56;" vertex="1" parent="WIyWlLk6GJQsqaUBKTNV-1">
          <mxGeometry x="685" y="368.5" width="60" height="30" as="geometry" />
        </mxCell>
        <mxCell id="Lzft2QzAgV64XNCXjjh6-54" value="" style="endArrow=classic;html=1;rounded=1;sketch=0;fontSize=10;fontColor=#393C56;strokeColor=#E07A5F;fillColor=#F2CC8F;curved=0;entryX=1;entryY=0.5;entryDx=0;entryDy=0;" edge="1" parent="WIyWlLk6GJQsqaUBKTNV-1" target="Lzft2QzAgV64XNCXjjh6-56">
          <mxGeometry width="50" height="50" relative="1" as="geometry">
            <mxPoint x="750" y="438" as="sourcePoint" />
            <mxPoint x="740" y="520" as="targetPoint" />
            <Array as="points">
              <mxPoint x="770" y="438" />
              <mxPoint x="770" y="550" />
            </Array>
          </mxGeometry>
        </mxCell>
        <mxCell id="Lzft2QzAgV64XNCXjjh6-55" value="Yes" style="text;html=1;strokeColor=none;fillColor=none;align=center;verticalAlign=middle;whiteSpace=wrap;rounded=0;sketch=0;fontSize=10;fontColor=#393C56;" vertex="1" parent="WIyWlLk6GJQsqaUBKTNV-1">
          <mxGeometry x="730" y="409" width="60" height="30" as="geometry" />
        </mxCell>
        <mxCell id="Lzft2QzAgV64XNCXjjh6-56" value="" style="shape=parallelogram;perimeter=parallelogramPerimeter;whiteSpace=wrap;html=1;fixedSize=1;rounded=0;sketch=0;fontSize=10;fontColor=#393C56;strokeColor=#E07A5F;fillColor=#F2CC8F;" vertex="1" parent="WIyWlLk6GJQsqaUBKTNV-1">
          <mxGeometry x="630" y="520" width="120" height="60" as="geometry" />
        </mxCell>
        <mxCell id="Lzft2QzAgV64XNCXjjh6-59" value="" style="edgeStyle=orthogonalEdgeStyle;curved=0;rounded=1;sketch=0;orthogonalLoop=1;jettySize=auto;html=1;fontSize=10;fontColor=#393C56;endArrow=block;endFill=1;strokeColor=#E07A5F;fillColor=#F2CC8F;" edge="1" parent="WIyWlLk6GJQsqaUBKTNV-1" target="Lzft2QzAgV64XNCXjjh6-58">
          <mxGeometry relative="1" as="geometry">
            <mxPoint x="640" y="550" as="sourcePoint" />
          </mxGeometry>
        </mxCell>
        <mxCell id="Lzft2QzAgV64XNCXjjh6-57" value="prompt for state" style="text;html=1;strokeColor=none;fillColor=none;align=center;verticalAlign=middle;whiteSpace=wrap;rounded=0;sketch=0;fontSize=10;fontColor=#393C56;" vertex="1" parent="WIyWlLk6GJQsqaUBKTNV-1">
          <mxGeometry x="642.5" y="527.5" width="95" height="45" as="geometry" />
        </mxCell>
        <mxCell id="Lzft2QzAgV64XNCXjjh6-58" value="" style="rhombus;whiteSpace=wrap;html=1;rounded=0;sketch=0;fontSize=10;fontColor=#393C56;strokeColor=#E07A5F;fillColor=#F2CC8F;" vertex="1" parent="WIyWlLk6GJQsqaUBKTNV-1">
          <mxGeometry x="500" y="510" width="100" height="80" as="geometry" />
        </mxCell>
        <mxCell id="Lzft2QzAgV64XNCXjjh6-67" value="" style="edgeStyle=orthogonalEdgeStyle;curved=0;rounded=1;sketch=0;orthogonalLoop=1;jettySize=auto;html=1;fontSize=10;fontColor=#393C56;endArrow=block;endFill=1;strokeColor=#E07A5F;fillColor=#F2CC8F;" edge="1" parent="WIyWlLk6GJQsqaUBKTNV-1" target="Lzft2QzAgV64XNCXjjh6-66">
          <mxGeometry relative="1" as="geometry">
            <mxPoint x="500" y="550" as="sourcePoint" />
          </mxGeometry>
        </mxCell>
        <mxCell id="Lzft2QzAgV64XNCXjjh6-60" value="does the input exist in tax file ?" style="text;html=1;strokeColor=none;fillColor=none;align=center;verticalAlign=middle;whiteSpace=wrap;rounded=0;sketch=0;fontSize=10;fontColor=#393C56;" vertex="1" parent="WIyWlLk6GJQsqaUBKTNV-1">
          <mxGeometry x="520" y="535" width="60" height="30" as="geometry" />
        </mxCell>
        <mxCell id="Lzft2QzAgV64XNCXjjh6-61" value="" style="endArrow=classic;html=1;rounded=1;sketch=0;fontSize=10;fontColor=#393C56;strokeColor=#E07A5F;fillColor=#F2CC8F;curved=0;exitX=0.5;exitY=0;exitDx=0;exitDy=0;entryX=0.5;entryY=0;entryDx=0;entryDy=0;" edge="1" parent="WIyWlLk6GJQsqaUBKTNV-1" source="Lzft2QzAgV64XNCXjjh6-58" target="Lzft2QzAgV64XNCXjjh6-56">
          <mxGeometry width="50" height="50" relative="1" as="geometry">
            <mxPoint x="490" y="430" as="sourcePoint" />
            <mxPoint x="540" y="380" as="targetPoint" />
            <Array as="points">
              <mxPoint x="550" y="481" />
              <mxPoint x="690" y="480" />
            </Array>
          </mxGeometry>
        </mxCell>
        <mxCell id="Lzft2QzAgV64XNCXjjh6-62" value="No" style="text;html=1;strokeColor=none;fillColor=none;align=center;verticalAlign=middle;whiteSpace=wrap;rounded=0;sketch=0;fontSize=10;fontColor=#393C56;" vertex="1" parent="WIyWlLk6GJQsqaUBKTNV-1">
          <mxGeometry x="510" y="482.5" width="60" height="30" as="geometry" />
        </mxCell>
        <mxCell id="Lzft2QzAgV64XNCXjjh6-43" value="Yes" style="text;html=1;strokeColor=none;fillColor=none;align=center;verticalAlign=middle;whiteSpace=wrap;rounded=0;sketch=0;fontSize=10;fontColor=#393C56;" vertex="1" parent="WIyWlLk6GJQsqaUBKTNV-1">
          <mxGeometry x="445" y="403.75" width="60" height="30" as="geometry" />
        </mxCell>
        <mxCell id="Lzft2QzAgV64XNCXjjh6-66" value="" style="shape=parallelogram;perimeter=parallelogramPerimeter;whiteSpace=wrap;html=1;fixedSize=1;rounded=0;sketch=0;fontSize=10;fontColor=#393C56;strokeColor=#E07A5F;fillColor=#F2CC8F;" vertex="1" parent="WIyWlLk6GJQsqaUBKTNV-1">
          <mxGeometry x="350" y="520" width="120" height="60" as="geometry" />
        </mxCell>
        <mxCell id="Lzft2QzAgV64XNCXjjh6-68" value="Yes" style="text;html=1;strokeColor=none;fillColor=none;align=center;verticalAlign=middle;whiteSpace=wrap;rounded=0;sketch=0;fontSize=10;fontColor=#393C56;" vertex="1" parent="WIyWlLk6GJQsqaUBKTNV-1">
          <mxGeometry x="460" y="520" width="60" height="30" as="geometry" />
        </mxCell>
        <mxCell id="Lzft2QzAgV64XNCXjjh6-70" value="prompt for a product type" style="text;html=1;strokeColor=none;fillColor=none;align=center;verticalAlign=middle;whiteSpace=wrap;rounded=0;sketch=0;fontSize=10;fontColor=#393C56;" vertex="1" parent="WIyWlLk6GJQsqaUBKTNV-1">
          <mxGeometry x="360" y="522.5" width="100" height="55" as="geometry" />
        </mxCell>
        <mxCell id="Lzft2QzAgV64XNCXjjh6-72" value="" style="rhombus;whiteSpace=wrap;html=1;rounded=0;sketch=0;fontSize=10;fontColor=#393C56;strokeColor=#E07A5F;fillColor=#F2CC8F;" vertex="1" parent="WIyWlLk6GJQsqaUBKTNV-1">
          <mxGeometry x="210" y="510" width="100" height="80" as="geometry" />
        </mxCell>
        <mxCell id="Lzft2QzAgV64XNCXjjh6-73" value="does the input exist in a product file?" style="text;html=1;strokeColor=none;fillColor=none;align=center;verticalAlign=middle;whiteSpace=wrap;rounded=0;sketch=0;fontSize=10;fontColor=#393C56;" vertex="1" parent="WIyWlLk6GJQsqaUBKTNV-1">
          <mxGeometry x="230" y="535" width="60" height="30" as="geometry" />
        </mxCell>
        <mxCell id="Lzft2QzAgV64XNCXjjh6-74" value="" style="endArrow=classic;html=1;rounded=1;sketch=0;fontSize=10;fontColor=#393C56;strokeColor=#E07A5F;fillColor=#F2CC8F;curved=0;entryX=1;entryY=0.5;entryDx=0;entryDy=0;" edge="1" parent="WIyWlLk6GJQsqaUBKTNV-1" target="Lzft2QzAgV64XNCXjjh6-72">
          <mxGeometry width="50" height="50" relative="1" as="geometry">
            <mxPoint x="360" y="550" as="sourcePoint" />
            <mxPoint x="390" y="530" as="targetPoint" />
          </mxGeometry>
        </mxCell>
        <mxCell id="Lzft2QzAgV64XNCXjjh6-75" value="" style="endArrow=classic;html=1;rounded=1;sketch=0;fontSize=10;fontColor=#393C56;strokeColor=#E07A5F;fillColor=#F2CC8F;curved=0;exitX=0.5;exitY=0;exitDx=0;exitDy=0;" edge="1" parent="WIyWlLk6GJQsqaUBKTNV-1" source="Lzft2QzAgV64XNCXjjh6-72">
          <mxGeometry width="50" height="50" relative="1" as="geometry">
            <mxPoint x="340" y="580" as="sourcePoint" />
            <mxPoint x="420" y="520" as="targetPoint" />
            <Array as="points">
              <mxPoint x="260" y="490" />
              <mxPoint x="420" y="490" />
            </Array>
          </mxGeometry>
        </mxCell>
        <mxCell id="Lzft2QzAgV64XNCXjjh6-76" value="No" style="text;html=1;strokeColor=none;fillColor=none;align=center;verticalAlign=middle;whiteSpace=wrap;rounded=0;sketch=0;fontSize=10;fontColor=#393C56;" vertex="1" parent="WIyWlLk6GJQsqaUBKTNV-1">
          <mxGeometry x="220" y="490" width="60" height="30" as="geometry" />
        </mxCell>
        <mxCell id="Lzft2QzAgV64XNCXjjh6-77" value="" style="endArrow=classic;html=1;rounded=1;sketch=0;fontSize=10;fontColor=#393C56;strokeColor=#E07A5F;fillColor=#F2CC8F;curved=0;exitX=0;exitY=0.5;exitDx=0;exitDy=0;entryX=0;entryY=0.5;entryDx=0;entryDy=0;" edge="1" parent="WIyWlLk6GJQsqaUBKTNV-1" source="Lzft2QzAgV64XNCXjjh6-72" target="Lzft2QzAgV64XNCXjjh6-79">
          <mxGeometry width="50" height="50" relative="1" as="geometry">
            <mxPoint x="340" y="580" as="sourcePoint" />
            <mxPoint x="150" y="550" as="targetPoint" />
            <Array as="points">
              <mxPoint x="170" y="550" />
              <mxPoint x="170" y="670" />
            </Array>
          </mxGeometry>
        </mxCell>
        <mxCell id="Lzft2QzAgV64XNCXjjh6-78" value="Yes" style="text;html=1;strokeColor=none;fillColor=none;align=center;verticalAlign=middle;whiteSpace=wrap;rounded=0;sketch=0;fontSize=10;fontColor=#393C56;" vertex="1" parent="WIyWlLk6GJQsqaUBKTNV-1">
          <mxGeometry x="180" y="522.5" width="40" height="27.5" as="geometry" />
        </mxCell>
        <mxCell id="Lzft2QzAgV64XNCXjjh6-79" value="prompt for an area" style="shape=parallelogram;perimeter=parallelogramPerimeter;whiteSpace=wrap;html=1;fixedSize=1;rounded=0;sketch=0;fontSize=10;fontColor=#393C56;strokeColor=#E07A5F;fillColor=#F2CC8F;" vertex="1" parent="WIyWlLk6GJQsqaUBKTNV-1">
          <mxGeometry x="190" y="640" width="120" height="60" as="geometry" />
        </mxCell>
        <mxCell id="Lzft2QzAgV64XNCXjjh6-80" value="Number.isInteger()&lt;br&gt;is False" style="rhombus;whiteSpace=wrap;html=1;rounded=0;sketch=0;fontSize=10;fontColor=#393C56;strokeColor=#E07A5F;fillColor=#F2CC8F;" vertex="1" parent="WIyWlLk6GJQsqaUBKTNV-1">
          <mxGeometry x="330" y="630" width="110" height="80" as="geometry" />
        </mxCell>
        <mxCell id="Lzft2QzAgV64XNCXjjh6-81" value="" style="endArrow=classic;html=1;rounded=1;sketch=0;fontSize=10;fontColor=#393C56;strokeColor=#E07A5F;fillColor=#F2CC8F;curved=0;exitX=1;exitY=0.5;exitDx=0;exitDy=0;entryX=0;entryY=0.5;entryDx=0;entryDy=0;" edge="1" parent="WIyWlLk6GJQsqaUBKTNV-1" source="Lzft2QzAgV64XNCXjjh6-79" target="Lzft2QzAgV64XNCXjjh6-80">
          <mxGeometry width="50" height="50" relative="1" as="geometry">
            <mxPoint x="290" y="610" as="sourcePoint" />
            <mxPoint x="340" y="560" as="targetPoint" />
          </mxGeometry>
        </mxCell>
        <mxCell id="Lzft2QzAgV64XNCXjjh6-82" value="" style="endArrow=classic;html=1;rounded=1;sketch=0;fontSize=10;fontColor=#393C56;strokeColor=#E07A5F;fillColor=#F2CC8F;curved=0;exitX=0.5;exitY=0;exitDx=0;exitDy=0;entryX=0.5;entryY=0;entryDx=0;entryDy=0;" edge="1" parent="WIyWlLk6GJQsqaUBKTNV-1" source="Lzft2QzAgV64XNCXjjh6-80" target="Lzft2QzAgV64XNCXjjh6-79">
          <mxGeometry width="50" height="50" relative="1" as="geometry">
            <mxPoint x="290" y="610" as="sourcePoint" />
            <mxPoint x="340" y="560" as="targetPoint" />
            <Array as="points">
              <mxPoint x="385" y="600" />
              <mxPoint x="250" y="600" />
            </Array>
          </mxGeometry>
        </mxCell>
        <mxCell id="Lzft2QzAgV64XNCXjjh6-83" value="No" style="text;html=1;strokeColor=none;fillColor=none;align=center;verticalAlign=middle;whiteSpace=wrap;rounded=0;sketch=0;fontSize=10;fontColor=#393C56;" vertex="1" parent="WIyWlLk6GJQsqaUBKTNV-1">
          <mxGeometry x="410" y="620" width="40" height="20" as="geometry" />
        </mxCell>
        <mxCell id="Lzft2QzAgV64XNCXjjh6-84" value="" style="endArrow=classic;html=1;rounded=1;sketch=0;fontSize=10;fontColor=#393C56;strokeColor=#E07A5F;fillColor=#F2CC8F;curved=0;exitX=1;exitY=0.5;exitDx=0;exitDy=0;entryX=0;entryY=0.5;entryDx=0;entryDy=0;" edge="1" parent="WIyWlLk6GJQsqaUBKTNV-1" source="Lzft2QzAgV64XNCXjjh6-80" target="Lzft2QzAgV64XNCXjjh6-86">
          <mxGeometry width="50" height="50" relative="1" as="geometry">
            <mxPoint x="290" y="600" as="sourcePoint" />
            <mxPoint x="510" y="670" as="targetPoint" />
          </mxGeometry>
        </mxCell>
        <mxCell id="Lzft2QzAgV64XNCXjjh6-85" value="Yes" style="text;html=1;strokeColor=none;fillColor=none;align=center;verticalAlign=middle;whiteSpace=wrap;rounded=0;sketch=0;fontSize=10;fontColor=#393C56;" vertex="1" parent="WIyWlLk6GJQsqaUBKTNV-1">
          <mxGeometry x="440" y="650" width="30" height="20" as="geometry" />
        </mxCell>
        <mxCell id="Lzft2QzAgV64XNCXjjh6-86" value="calculate tax rate, area, cost per sqft, etc. Display the result of calculations" style="rounded=0;whiteSpace=wrap;html=1;sketch=0;fontSize=10;fontColor=#393C56;strokeColor=#E07A5F;fillColor=#F2CC8F;" vertex="1" parent="WIyWlLk6GJQsqaUBKTNV-1">
          <mxGeometry x="480" y="640" width="100" height="60" as="geometry" />
        </mxCell>
        <mxCell id="Lzft2QzAgV64XNCXjjh6-87" value="ask user if they agree &lt;br&gt;to place an order,&lt;br&gt;y/n&amp;nbsp;" style="shape=parallelogram;perimeter=parallelogramPerimeter;whiteSpace=wrap;html=1;fixedSize=1;rounded=0;sketch=0;fontSize=10;fontColor=#393C56;strokeColor=#E07A5F;fillColor=#F2CC8F;" vertex="1" parent="WIyWlLk6GJQsqaUBKTNV-1">
          <mxGeometry x="610" y="640" width="127.5" height="60" as="geometry" />
        </mxCell>
        <mxCell id="Lzft2QzAgV64XNCXjjh6-89" value="" style="endArrow=classic;html=1;rounded=1;sketch=0;fontSize=10;fontColor=#393C56;strokeColor=#E07A5F;fillColor=#F2CC8F;curved=0;exitX=1;exitY=0.5;exitDx=0;exitDy=0;entryX=0;entryY=0.5;entryDx=0;entryDy=0;" edge="1" parent="WIyWlLk6GJQsqaUBKTNV-1" source="Lzft2QzAgV64XNCXjjh6-86" target="Lzft2QzAgV64XNCXjjh6-87">
          <mxGeometry width="50" height="50" relative="1" as="geometry">
            <mxPoint x="670" y="670" as="sourcePoint" />
            <mxPoint x="720" y="620" as="targetPoint" />
          </mxGeometry>
        </mxCell>
        <mxCell id="Lzft2QzAgV64XNCXjjh6-90" value="" style="endArrow=classic;html=1;rounded=1;sketch=0;fontSize=10;fontColor=#393C56;strokeColor=#E07A5F;fillColor=#F2CC8F;curved=0;" edge="1" parent="WIyWlLk6GJQsqaUBKTNV-1">
          <mxGeometry width="50" height="50" relative="1" as="geometry">
            <mxPoint x="668" y="700" as="sourcePoint" />
            <mxPoint x="668" y="740" as="targetPoint" />
          </mxGeometry>
        </mxCell>
        <mxCell id="Lzft2QzAgV64XNCXjjh6-91" value="order num = max + 1&lt;br&gt;write to a file" style="rounded=0;whiteSpace=wrap;html=1;sketch=0;fontSize=10;fontColor=#393C56;strokeColor=#E07A5F;fillColor=#F2CC8F;" vertex="1" parent="WIyWlLk6GJQsqaUBKTNV-1">
          <mxGeometry x="620" y="740" width="100" height="50" as="geometry" />
        </mxCell>
        <mxCell id="Lzft2QzAgV64XNCXjjh6-92" value="No" style="text;html=1;strokeColor=none;fillColor=none;align=center;verticalAlign=middle;whiteSpace=wrap;rounded=0;sketch=0;fontSize=10;fontColor=#393C56;" vertex="1" parent="WIyWlLk6GJQsqaUBKTNV-1">
          <mxGeometry x="740" y="650" width="40" height="20" as="geometry" />
        </mxCell>
        <mxCell id="Lzft2QzAgV64XNCXjjh6-93" value="Yes" style="text;html=1;strokeColor=none;fillColor=none;align=center;verticalAlign=middle;whiteSpace=wrap;rounded=0;sketch=0;fontSize=10;fontColor=#393C56;" vertex="1" parent="WIyWlLk6GJQsqaUBKTNV-1">
          <mxGeometry x="670" y="710" width="30" height="20" as="geometry" />
        </mxCell>
        <mxCell id="Lzft2QzAgV64XNCXjjh6-94" value="" style="endArrow=classic;html=1;rounded=1;sketch=0;fontSize=10;fontColor=#393C56;strokeColor=#E07A5F;fillColor=#F2CC8F;curved=0;exitX=1;exitY=0.5;exitDx=0;exitDy=0;" edge="1" parent="WIyWlLk6GJQsqaUBKTNV-1" source="Lzft2QzAgV64XNCXjjh6-87">
          <mxGeometry width="50" height="50" relative="1" as="geometry">
            <mxPoint x="670" y="740" as="sourcePoint" />
            <mxPoint x="800" y="670" as="targetPoint" />
          </mxGeometry>
        </mxCell>
        <mxCell id="Lzft2QzAgV64XNCXjjh6-96" value="" style="endArrow=classic;html=1;rounded=1;sketch=0;fontSize=10;fontColor=#393C56;strokeColor=#E07A5F;fillColor=#F2CC8F;curved=0;exitX=1;exitY=0.5;exitDx=0;exitDy=0;" edge="1" parent="WIyWlLk6GJQsqaUBKTNV-1" source="Lzft2QzAgV64XNCXjjh6-91">
          <mxGeometry width="50" height="50" relative="1" as="geometry">
            <mxPoint x="690" y="820" as="sourcePoint" />
            <mxPoint x="800" y="765" as="targetPoint" />
          </mxGeometry>
        </mxCell>
        <mxCell id="Lzft2QzAgV64XNCXjjh6-97" value="&lt;h1 style=&quot;font-size: 13px;&quot;&gt;Main menu&lt;/h1&gt;&lt;p style=&quot;font-size: 13px;&quot;&gt;&lt;br style=&quot;font-size: 13px;&quot;&gt;&lt;/p&gt;" style="text;html=1;strokeColor=none;fillColor=none;spacing=5;spacingTop=-20;whiteSpace=wrap;overflow=hidden;rounded=0;sketch=0;fontSize=13;fontColor=#393C56;" vertex="1" parent="WIyWlLk6GJQsqaUBKTNV-1">
          <mxGeometry x="78.75" y="180" width="77.5" height="20" as="geometry" />
        </mxCell>
        <mxCell id="Lzft2QzAgV64XNCXjjh6-102" value="" style="endArrow=none;html=1;rounded=1;sketch=0;fontSize=13;fontColor=#393C56;strokeColor=#E07A5F;fillColor=#F2CC8F;curved=0;exitX=1;exitY=0.5;exitDx=0;exitDy=0;startArrow=classic;startFill=1;" edge="1" parent="WIyWlLk6GJQsqaUBKTNV-1" source="Lzft2QzAgV64XNCXjjh6-2">
          <mxGeometry width="50" height="50" relative="1" as="geometry">
            <mxPoint x="400" y="280" as="sourcePoint" />
            <mxPoint x="801.1111450195312" y="200" as="targetPoint" />
          </mxGeometry>
        </mxCell>
        <mxCell id="Lzft2QzAgV64XNCXjjh6-105" value="" style="endArrow=none;html=1;rounded=1;sketch=0;fontSize=13;fontColor=#393C56;strokeColor=#E07A5F;fillColor=#F2CC8F;curved=0;" edge="1" parent="WIyWlLk6GJQsqaUBKTNV-1">
          <mxGeometry width="50" height="50" relative="1" as="geometry">
            <mxPoint x="800" y="1050.5556233723958" as="sourcePoint" />
            <mxPoint x="800" y="200" as="targetPoint" />
          </mxGeometry>
        </mxCell>
        <mxCell id="Lzft2QzAgV64XNCXjjh6-106" value="" style="shape=image;html=1;verticalAlign=top;verticalLabelPosition=bottom;labelBackgroundColor=#ffffff;imageAspect=0;aspect=fixed;image=https://cdn2.iconfinder.com/data/icons/integers/60/number-two-128.png;rounded=0;sketch=0;fontSize=13;fontColor=#393C56;strokeColor=#E07A5F;fillColor=#F2CC8F;" vertex="1" parent="WIyWlLk6GJQsqaUBKTNV-1">
          <mxGeometry x="360" y="40" width="15" height="15" as="geometry" />
        </mxCell>
        <mxCell id="Lzft2QzAgV64XNCXjjh6-107" value="" style="shape=image;html=1;verticalAlign=top;verticalLabelPosition=bottom;labelBackgroundColor=#ffffff;imageAspect=0;aspect=fixed;image=https://cdn2.iconfinder.com/data/icons/integers/60/number-one-128.png;rounded=0;sketch=0;fontSize=10;fontColor=#393C56;strokeColor=#E07A5F;fillColor=#F2CC8F;strokeWidth=0;" vertex="1" parent="WIyWlLk6GJQsqaUBKTNV-1">
          <mxGeometry x="360" y="10" width="16" height="16" as="geometry" />
        </mxCell>
        <mxCell id="Lzft2QzAgV64XNCXjjh6-108" value="- display orders" style="text;html=1;strokeColor=none;fillColor=none;align=center;verticalAlign=middle;whiteSpace=wrap;rounded=0;sketch=0;fontSize=10;fontColor=#393C56;" vertex="1" parent="WIyWlLk6GJQsqaUBKTNV-1">
          <mxGeometry x="365" y="11" width="100" height="14" as="geometry" />
        </mxCell>
        <mxCell id="Lzft2QzAgV64XNCXjjh6-109" value="- add an order" style="text;html=1;strokeColor=none;fillColor=none;align=center;verticalAlign=middle;whiteSpace=wrap;rounded=0;sketch=0;fontSize=10;fontColor=#393C56;" vertex="1" parent="WIyWlLk6GJQsqaUBKTNV-1">
          <mxGeometry x="371" y="43.75" width="84" height="7.5" as="geometry" />
        </mxCell>
      </root>
    </mxGraphModel>
  </diagram>
</mxfile>
